<?xml version="1.0" encoding="UTF-8" standalone="no"?><!DOCTYPE svg PUBLIC "-//W3C//DTD SVG 1.1//EN" "http://www.w3.org/Graphics/SVG/1.1/DTD/svg11.dtd"><svg width="100%" height="100%" viewBox="0 0 628 1403" version="1.1" xmlns="http://www.w3.org/2000/svg" xmlns:xlink="http://www.w3.org/1999/xlink" xml:space="preserve" xmlns:serif="http://www.serif.com/" style="fill-rule:evenodd;clip-rule:evenodd;stroke-linejoin:round;stroke-miterlimit:2;"><g><path d="M520.987,10.985c5.724,-10.423 -489.268,498.291 -489.268,498.291l-20.261,133.108l404.838,208.3c0,0 -314.62,521.432 -309.13,538.868c6.292,19.986 489.945,-479.189 489.945,-479.189l18.015,-138.838c0,0 -396.858,-221.698 -388.613,-232.733c44.347,-59.357 190.418,-338.344 294.474,-527.807Z" style="fill:#e13300;"/><path d="M520.987,10.83l0.001,0l0.022,0l-0.023,0.006l0,0.149l0.047,-0.121l0,-0.014l-0.006,-0.013l-0.007,-0.007l-0.011,0l0.008,-0.002l0.003,0.002l0.004,0.001l0.003,0.006l0.006,0.006l0,0.007l0.003,0.007l-0.003,0.007l0,0.01l-0.047,0.111l0.853,0l0,0.468c-61.835,114.405 -138.593,261.336 -199.624,373.194c-39.104,71.669 -71.803,128.962 -89.872,154.338c1.983,1.753 5.789,4.999 9.929,7.935c24.122,17.111 78.818,49.718 139.178,84.677c109.201,63.247 236.943,134.078 236.943,134.078c2.392,1.337 3.73,3.995 3.377,6.712l-17.625,138.889c-0.197,1.515 -0.877,2.926 -1.94,4.023c0,0 -89.496,92.717 -192.152,196.505c-66.506,67.239 -138.568,139.09 -195.182,193.616c-41.764,40.224 -75.222,71.019 -92.005,83.726c-6.758,5.118 -11.721,7.425 -13.96,7.632c-4.613,0.426 -7.043,-1.805 -8.111,-5.221c-0.298,-0.952 -0.519,-2.34 -0.259,-4.165c0.32,-2.255 1.73,-6.454 4.333,-12.276c7.977,-17.846 27.569,-53.876 53.293,-99.099c82.878,-145.698 229.409,-387.512 251.179,-423.384l-399.392,-207.317c-1.26,-0.648 -1.964,-2.028 -1.751,-3.428l20.757,-133.033c0.088,-0.576 0.354,-1.11 0.76,-1.528c0,0 198.382,-202.292 343.036,-348.622c74.65,-75.516 134.992,-136.124 146.359,-146.351l1.023,-1.837l0.853,0l0,0.313Zm-1.904,1.574c-8.743,8.013 -46.028,45.88 -96.356,97.452c-138.162,141.576 -374.593,386.439 -388.376,400.716l-19.284,129.951l403.487,205.773c1.215,0.625 2.117,1.726 2.49,3.041c0.372,1.315 0.183,2.726 -0.523,3.896c0,0 -129.547,216.271 -220.524,375.074c-36.78,64.199 -67.259,118.967 -80.184,146.167c8.863,-7.231 21.041,-18.123 35.762,-31.786c62.798,-58.282 170.565,-166.584 263.381,-260.709c86.335,-87.552 159.727,-162.86 171.433,-174.881l17.499,-131.964c-28.752,-16.225 -206.856,-116.961 -310.115,-180.479c-32.666,-20.094 -57.871,-36.529 -68.699,-45.392c-4.281,-3.505 -6.563,-6.357 -7.133,-7.915c-0.847,-2.316 -0.316,-4.114 0.695,-5.453c17.742,-23.469 51.711,-81.625 92.899,-154.947c62.058,-110.471 140.372,-255.279 203.548,-368.544Zm1.266,-1.123l-0.034,0.029l0.059,-0.048l-0.025,0.019Zm0.455,-0.352l-0.014,0.011l0.022,-0.016l-0.008,0.005Zm0.138,-0.082l-0.065,0.039l0.088,-0.045l-0.023,0.006Z" style="fill:#ff6b00;"/></g></svg>